<svg width="20" height="20" viewBox="0 0 20 20" fill="none" xmlns="http://www.w3.org/2000/svg">
<path d="M15.2203 7.95676e-05C14.9832 0.00343913 14.757 0.0983468 14.59 0.2631L14.0484 0.792618C13.6555 0.575775 13.2068 0.446264 12.7274 0.446264H2.72818C1.23299 0.446264 0 1.65184 0 3.11379V17.3359C0 18.7979 1.23299 20 2.72818 20H12.7274C14.2226 20 15.4556 18.7979 15.4556 17.3359V9.4714L19.7338 5.28913C20.0887 4.94199 20.0887 4.37932 19.7338 4.03218L15.8782 0.2631C15.7045 0.0917957 15.467 -0.00314562 15.2203 7.95676e-05ZM15.2337 2.14938L17.8039 4.66239L13.6268 8.74658L9.07332 13.2023H6.49961V10.6858L11.0566 6.23357L15.2337 2.14938ZM2.72827 2.22497H12.5845L10.7681 4.00188C8.69453 4.00188 6.62094 4.00188 4.54735 4.00188C4.16469 3.99684 3.79503 4.25673 3.68176 4.61646C3.55408 4.98072 3.7061 5.4131 4.0351 5.62426C4.21686 5.75142 4.44297 5.78855 4.66099 5.77964C6.09063 5.77964 7.52027 5.77964 8.94991 5.77964L7.12905 7.55915C6.27796 7.55915 5.42686 7.55915 4.57576 7.55915C4.1931 7.55412 3.82344 7.81401 3.71016 8.17374C3.58248 8.538 3.73451 8.97037 4.06351 9.18154C4.24527 9.3087 4.47138 9.34582 4.6894 9.33692C4.89596 9.33692 5.10252 9.33692 5.30908 9.33692L4.94952 9.68848C4.77795 9.85528 4.68146 10.0821 4.68141 10.3187V14.0912C4.68291 14.5811 5.08949 14.9775 5.59051 14.9775H9.44885C9.6892 14.9772 9.91966 14.884 10.0898 14.718L13.6366 11.2501V17.336C13.6366 17.8438 13.2468 18.2258 12.7275 18.2258H2.72827C2.2089 18.2258 1.81917 17.8438 1.81917 17.336V3.11386C1.81917 2.60605 2.2089 2.22497 2.72827 2.22497Z" fill="#666666"/>
</svg>
