<svg width="20" height="20" viewBox="0 0 20 20" fill="none" xmlns="http://www.w3.org/2000/svg">
<path d="M17.0141 2.88324C17.0094 2.87857 17.0081 2.8719 17.0034 2.86724C16.9987 2.86257 16.9841 2.8559 16.9754 2.84857C15.1127 1.02271 12.6083 0 10 0C7.39166 0 4.8873 1.02271 3.02459 2.84857C3.01592 2.85657 3.00459 2.85924 2.99659 2.86724C2.98859 2.87524 2.99059 2.87857 2.98592 2.88324C2.04042 3.81166 1.2894 4.91918 0.776723 6.1411C0.264049 7.36303 0 8.67486 0 9.99998C0 11.3251 0.264049 12.6369 0.776723 13.8589C1.2894 15.0808 2.04042 16.1883 2.98592 17.1167C2.99059 17.1214 2.99192 17.1281 2.99659 17.1327C3.00125 17.1374 3.01592 17.1441 3.02459 17.1514C4.88741 18.9773 7.39188 20 10.0003 20C12.6088 20 15.1133 18.9773 16.9761 17.1514C16.9847 17.1434 16.9954 17.1407 17.0034 17.1327C17.0114 17.1247 17.0094 17.1214 17.0141 17.1167C17.9596 16.1883 18.7106 15.0808 19.2233 13.8589C19.736 12.6369 20 11.3251 20 9.99998C20 8.67486 19.736 7.36303 19.2233 6.1411C18.7106 4.91918 17.9596 3.81166 17.0141 2.88324ZM16.4801 15.7334C15.6425 15.0155 14.6919 14.4413 13.6667 14.034C13.8518 12.9204 13.9591 11.7952 13.988 10.6667H18.6328C18.4888 12.5456 17.7326 14.3254 16.4801 15.7334ZM1.36724 10.6667H6.01195C6.0402 11.7952 6.1469 12.9203 6.33129 14.034C5.30683 14.4415 4.35688 15.0157 3.51993 15.7334C2.26744 14.3254 1.51124 12.5456 1.36724 10.6667ZM3.51993 4.26658C4.35748 4.98445 5.30813 5.55866 6.33329 5.96594C6.14823 7.07959 6.04086 8.20476 6.01195 9.33331H1.36724C1.51124 7.45439 2.26744 5.67454 3.51993 4.26658ZM12.1334 5.05659C11.4366 5.23748 10.7199 5.33043 10 5.33326C9.28012 5.33043 8.56343 5.23748 7.86664 5.05659C8.41998 2.70257 9.30866 1.33322 10 1.33322C10.6913 1.33322 11.58 2.70257 12.1334 5.05659ZM12.2567 1.64256C13.4555 1.96479 14.5708 2.54142 15.5267 3.33324C14.8843 3.86677 14.168 4.30443 13.4 4.63259C13.1689 3.58536 12.7847 2.57788 12.26 1.64256H12.2567ZM7.34597 9.33331C7.36762 8.33934 7.45447 7.34787 7.60597 6.36528C8.38887 6.56209 9.19275 6.66327 10 6.66661C10.8075 6.66322 11.6116 6.56203 12.3947 6.36528C12.5456 7.34792 12.6323 8.33938 12.654 9.33331H7.34597ZM12.654 10.6667C12.6323 11.6606 12.5456 12.652 12.3947 13.6347C10.8237 13.2329 9.17693 13.2329 7.60597 13.6347C7.45447 12.6521 7.36762 11.6606 7.34597 10.6667H12.654ZM6.59996 4.63259C5.83205 4.30443 5.11571 3.86677 4.47327 3.33324C5.42857 2.54304 6.54267 1.96757 7.73997 1.64589C7.21557 2.58017 6.83146 3.58651 6.59996 4.63259ZM6.59996 15.366C6.83114 16.4133 7.21527 17.4208 7.73997 18.3561C6.54267 18.0344 5.42857 17.4589 4.47327 16.6687C5.11559 16.1345 5.83193 15.6962 6.59996 15.3674V15.366ZM7.86331 14.942C9.26388 14.5731 10.7361 14.5731 12.1367 14.942C11.58 17.2974 10.6913 18.6667 10 18.6667C9.30866 18.6667 8.41998 17.2974 7.86664 14.9434L7.86331 14.942ZM13.4 15.366C14.1682 15.6952 14.8845 16.134 15.5267 16.6687C14.5714 17.4589 13.4573 18.0344 12.26 18.3561C12.7846 17.4212 13.1687 16.4141 13.4 15.3674V15.366ZM13.988 9.33331C13.9591 8.20476 13.8518 7.07959 13.6667 5.96594C14.6919 5.55866 15.6425 4.98445 16.4801 4.26658C17.7326 5.67454 18.4888 7.45439 18.6328 9.33331H13.988Z" fill="#666666"/>
</svg>
