<svg width="24" height="24" viewBox="0 0 24 24" fill="none" xmlns="http://www.w3.org/2000/svg">
<path d="M17.2203 2.00008C16.9832 2.00344 16.757 2.09835 16.59 2.2631L16.0484 2.79262C15.6555 2.57577 15.2068 2.44626 14.7274 2.44626H4.72818C3.23299 2.44626 2 3.65184 2 5.11379V19.3359C2 20.7979 3.23299 22 4.72818 22H14.7274C16.2226 22 17.4556 20.7979 17.4556 19.3359V11.4714L21.7338 7.28913C22.0887 6.94199 22.0887 6.37933 21.7338 6.03218L17.8782 2.2631C17.7045 2.0918 17.467 1.99685 17.2203 2.00008V2.00008ZM17.2337 4.14938L19.8039 6.66239L15.6268 10.7466L11.0733 15.2023H8.49961V12.6858L13.0566 8.23357L17.2337 4.14938ZM4.72827 4.22497H14.5845L12.7681 6.00188C10.6945 6.00188 8.62094 6.00188 6.54735 6.00188C6.16469 5.99684 5.79503 6.25673 5.68176 6.61646C5.55408 6.98072 5.7061 7.4131 6.0351 7.62426C6.21686 7.75142 6.44297 7.78855 6.66099 7.77964C8.09063 7.77964 9.52027 7.77964 10.9499 7.77964L9.12905 9.55915C8.27795 9.55915 7.42686 9.55915 6.57576 9.55915C6.1931 9.55412 5.82344 9.81401 5.71016 10.1737C5.58248 10.538 5.73451 10.9704 6.06351 11.1815C6.24527 11.3087 6.47138 11.3458 6.6894 11.3369C6.89596 11.3369 7.10252 11.3369 7.30908 11.3369L6.94952 11.6885C6.77795 11.8553 6.68145 12.0821 6.68141 12.3187V16.0912C6.68291 16.5811 7.08949 16.9775 7.59051 16.9775H11.4489C11.6892 16.9772 11.9197 16.884 12.0898 16.718L15.6366 13.2501V19.336C15.6366 19.8438 15.2468 20.2258 14.7275 20.2258H4.72827C4.2089 20.2258 3.81917 19.8438 3.81917 19.336V5.11386C3.81917 4.60605 4.2089 4.22497 4.72827 4.22497V4.22497Z" fill="#666666"/>
</svg>
