<svg width="50" height="67" viewBox="0 0 50 67" fill="none" xmlns="http://www.w3.org/2000/svg">
<path d="M14.8735 16.7722H1.58228C0.632913 16.7722 0 16.1393 0 15.1899V1.58228C0 0.632912 0.632913 0 1.58228 0H14.8735C15.8228 0 16.4557 0.632912 16.4557 1.58228V15.1899C16.4557 16.1393 15.8228 16.7722 14.8735 16.7722ZM3.16457 13.6076H13.2912V3.16456H3.16457V13.6076Z" fill="#28619E"/>
<path d="M14.8735 41.6125H1.58228C0.632913 41.6125 0 40.9796 0 40.0302V26.4226C0 25.4732 0.632913 24.8403 1.58228 24.8403H14.8735C15.8228 24.8403 16.4557 25.4732 16.4557 26.4226V40.0302C16.4557 40.9796 15.8228 41.6125 14.8735 41.6125ZM3.16457 38.448H13.2912V28.0049H3.16457V38.448Z" fill="#28619E"/>
<path d="M7.59498 36.3943C7.12029 36.3943 6.80384 36.2361 6.48738 35.9196C5.85447 35.2867 5.85447 34.3373 6.48738 33.7044L9.49372 30.6981C10.1266 30.0652 11.076 30.0652 11.7089 30.6981C12.3418 31.331 12.3418 32.2804 11.7089 32.9133L8.70258 35.9196C8.38612 36.2361 7.91143 36.3943 7.59498 36.3943Z" fill="#28619E"/>
<path d="M7.59523 36.3941C7.12054 36.3941 6.80409 36.2358 6.48763 35.9194L4.90535 34.3371C4.27244 33.7042 4.27244 32.7548 4.90535 32.1219C5.53826 31.489 6.48763 31.489 7.12054 32.1219L8.70283 33.7042C9.33574 34.3371 9.33574 35.2865 8.70283 35.9194C8.38637 36.2358 7.91168 36.3941 7.59523 36.3941Z" fill="#28619E"/>
<path d="M43.9871 12.66H22.1516C21.2022 12.66 20.5693 12.0271 20.5693 11.0778C20.5693 10.1284 21.2022 9.49548 22.1516 9.49548H43.9871C44.9365 9.49548 45.5694 10.1284 45.5694 11.0778C45.5694 12.0271 44.9365 12.66 43.9871 12.66Z" fill="#28619E"/>
<path d="M48.4175 31.0153H22.1516C21.2022 31.0153 20.5693 30.3824 20.5693 29.433C20.5693 28.4836 21.2022 27.8507 22.1516 27.8507H48.4175C49.3669 27.8507 49.9998 28.4836 49.9998 29.433C49.9998 30.3824 49.3669 31.0153 48.4175 31.0153Z" fill="#28619E"/>
<path d="M43.9871 38.7682H22.1516C21.2022 38.7682 20.5693 38.1353 20.5693 37.1859C20.5693 36.2366 21.2022 35.6036 22.1516 35.6036H43.9871C44.9365 35.6036 45.5694 36.2366 45.5694 37.1859C45.5694 38.1353 44.9365 38.7682 43.9871 38.7682Z" fill="#28619E"/>
<path d="M14.8735 66.7722H1.58228C0.632913 66.7722 0 66.1393 0 65.1899V51.5823C0 50.6329 0.632913 50 1.58228 50H14.8735C15.8228 50 16.4557 50.6329 16.4557 51.5823V65.1899C16.4557 66.1393 15.8228 66.7722 14.8735 66.7722ZM3.16457 63.6076H13.2912V53.1646H3.16457V63.6076Z" fill="#28619E"/>
<path d="M48.4175 56.1753H22.1516C21.2022 56.1753 20.5693 55.5424 20.5693 54.593C20.5693 53.6437 21.2022 53.0107 22.1516 53.0107H48.4175C49.3669 53.0107 49.9998 53.6437 49.9998 54.593C49.9998 55.5424 49.3669 56.1753 48.4175 56.1753Z" fill="#28619E"/>
<path d="M43.9871 63.9282H22.1516C21.2022 63.9282 20.5693 63.2953 20.5693 62.346C20.5693 61.3966 21.2022 60.7637 22.1516 60.7637H43.9871C44.9365 60.7637 45.5694 61.3966 45.5694 62.346C45.5694 63.2953 44.9365 63.9282 43.9871 63.9282Z" fill="#28619E"/>
<path d="M48.4175 4.90529H22.1516C21.2022 4.90529 20.5693 4.27238 20.5693 3.32301C20.5693 2.37364 21.2022 1.74072 22.1516 1.74072H48.4175C49.3669 1.74072 49.9998 2.37364 49.9998 3.32301C49.9998 4.27238 49.3669 4.90529 48.4175 4.90529Z" fill="#28619E"/>
<path d="M7.59498 11.552C7.12029 11.552 6.80384 11.3938 6.48738 11.0773C5.85447 10.4444 5.85447 9.49504 6.48738 8.86212L9.49372 5.85579C10.1266 5.22288 11.076 5.22288 11.7089 5.85579C12.3418 6.4887 12.3418 7.43807 11.7089 8.07098L8.70258 11.0773C8.38612 11.3938 7.91143 11.552 7.59498 11.552Z" fill="#28619E"/>
<path d="M7.59523 11.5537C7.12054 11.5537 6.80409 11.3955 6.48763 11.079L4.90535 9.49677C4.27244 8.86385 4.27244 7.91448 4.90535 7.28157C5.53826 6.64866 6.48763 6.64866 7.12054 7.28157L8.70283 8.86385C9.33574 9.49677 9.33574 10.4461 8.70283 11.079C8.38637 11.3955 7.91168 11.5537 7.59523 11.5537Z" fill="#28619E"/>
</svg>
